<?xml version="1.0" encoding="UTF-8" standalone="no"?>
<!-- Created with Inkscape (http://www.inkscape.org/) -->

<svg
   width="6.2888188in"
   height="1.6045526in"
   viewBox="0 0 159.736 40.755637"
   version="1.1"
   id="svg1"
   inkscape:version="1.4 (e7c3feb1, 2024-10-09)"
   xml:space="preserve"
   sodipodi:docname="logo.svg"
   xmlns:inkscape="http://www.inkscape.org/namespaces/inkscape"
   xmlns:sodipodi="http://sodipodi.sourceforge.net/DTD/sodipodi-0.dtd"
   xmlns="http://www.w3.org/2000/svg"
   xmlns:svg="http://www.w3.org/2000/svg"><sodipodi:namedview
     id="namedview1"
     pagecolor="#ffffff"
     bordercolor="#000000"
     borderopacity="0.25"
     inkscape:showpageshadow="2"
     inkscape:pageopacity="0.0"
     inkscape:pagecheckerboard="0"
     inkscape:deskcolor="#d1d1d1"
     inkscape:document-units="mm"
     showgrid="true"
     guidecolor="#f2280f"
     guideopacity="0.6"
     inkscape:zoom="0.89806291"
     inkscape:cx="369.68457"
     inkscape:cy="657.52632"
     inkscape:window-width="1512"
     inkscape:window-height="916"
     inkscape:window-x="0"
     inkscape:window-y="38"
     inkscape:window-maximized="0"
     inkscape:current-layer="g2"><inkscape:grid
       id="grid1"
       units="in"
       originx="-27.80864"
       originy="-165.28806"
       spacingx="6.3500001"
       spacingy="6.3499997"
       empcolor="#0099e5"
       empopacity="0.30196078"
       color="#0099e5"
       opacity="0.14901961"
       empspacing="5"
       enabled="true"
       visible="true" /><inkscape:page
       x="0"
       y="-5.0946573e-13"
       width="159.73599"
       height="40.755634"
       id="page2"
       margin="0"
       bleed="0" /></sodipodi:namedview><defs
     id="defs1" /><g
     inkscape:groupmode="layer"
     id="layer3"
     inkscape:label="Logo"
     sodipodi:insensitive="true"
     style="display:none"
     transform="translate(-27.80864,-165.28807)"><g
       id="g10"
       inkscape:label="Joined"><path
         id="path9"
         style="display:inline;fill:#de2020;fill-opacity:1"
         inkscape:label="Joined Logo"
         d="m 68.056823,149.67616 -5.942273,0.0465 -5.942273,0.0465 4.934583,9.38496 c 2.714069,5.16191 4.934582,9.45586 4.934582,9.54206 0,0.0862 -2.222328,4.38122 -4.938717,9.54412 -2.716388,5.16289 -4.938716,9.43961 -4.938716,9.50381 0,0.0642 0.573419,0.69427 1.274341,1.39991 l 1.27434,1.28261 h 5.954159 5.954159 l 0.639237,-1.19062 c 0.351464,-0.65484 1.136021,-2.1331 1.743563,-3.28507 l 1.104325,-2.09445 1.07332,2.0066 c 0.846728,1.5832 1.345988,2.2761 2.367297,3.28713 l 1.293978,1.28158 5.91075,-0.0465 5.910234,-0.0465 -4.99091,-9.48986 -4.990393,-9.48934 5.022949,-9.56014 5.023466,-9.55963 -1.270723,-1.27951 -1.270724,-1.2795 h -6.007902 -6.007902 l -1.669665,3.17035 c -0.918211,1.74374 -1.71957,3.1725 -1.78077,3.175 -0.0612,0.002 -0.557264,-0.85083 -1.102775,-1.89653 -0.781931,-1.49889 -1.264047,-2.17153 -2.276864,-3.17758 z m 38.348567,0.11007 c -0.2771,-4.6e-4 -0.55572,0.005 -0.83664,0.015 -3.05626,0.1135 -5.18511,0.64796 -7.849654,1.97198 -6.491754,3.22578 -10.495837,9.66656 -10.494968,16.88114 4.94e-4,4.09472 1.008603,7.43881 3.26285,10.82673 1.093302,1.64313 5.542658,6.19735 7.243998,7.41453 2.331054,1.66767 5.254154,2.86166 8.190204,3.34553 0.93374,0.15393 2.29809,0.22075 3.61632,0.17725 8.67739,-0.2864 16.0451,-6.39946 17.89813,-14.85025 l 0.31471,-1.43661 -1.34927,-1.34152 -1.34927,-1.34152 -5.3759,0.001 -5.3759,5.1e-4 -0.60927,1.18959 c -2.01807,3.94119 -6.79099,5.64141 -10.82673,3.85662 -1.52591,-0.67484 -2.22383,-2.04097 -2.36729,-4.63176 -0.0733,-1.32294 -0.0214,-1.83612 0.28939,-2.85926 1.01788,-3.35114 3.97967,-5.73107 7.4352,-5.97483 1.54293,-0.10884 2.8043,0.12196 4.15117,0.75913 0.75001,0.35482 1.05873,0.63172 1.42523,1.27796 0.25732,0.45375 1.06929,1.44025 1.80403,2.19211 l 1.33583,1.36684 h 5.33973 5.33973 v -0.42116 c 0,-1.42131 -1.61211,-5.4622 -3.01326,-7.55251 -0.96998,-1.44705 -5.34571,-5.90329 -7.05538,-7.18509 -3.25975,-2.44395 -6.98642,-3.67464 -11.14299,-3.68143 z m -43.996284,0.42374 h 5.18728 l 2.252576,4.32015 c 1.239033,2.3757 2.266691,4.30088 2.283581,4.27778 0.01689,-0.0231 1.042448,-1.96705 2.278931,-4.31964 l 2.247925,-4.27725 h 5.09788 c 3.736836,0 5.098396,0.0543 5.098396,0.2036 0,0.11204 -1.975197,3.94171 -4.388879,8.5106 -2.413682,4.56888 -4.559378,8.6464 -4.768184,9.06094 l -0.379305,0.75344 4.257104,8.06618 c 2.341617,4.43615 4.531211,8.56158 4.865336,9.16791 l 0.607198,1.10226 -5.25601,-0.005 -5.25601,-0.005 -2.225187,-4.23953 -2.225187,-4.23902 -2.20555,4.19975 -2.206067,4.19974 -5.225521,0.047 -5.225521,0.0465 0.869198,-1.63401 c 0.477927,-0.89882 2.650828,-5.02717 4.828646,-9.1736 l 3.959448,-7.53855 -4.829679,-9.18394 c -2.65625,-5.05107 -4.829163,-9.2189 -4.829163,-9.26197 0,-0.0431 2.333903,-0.0786 5.186764,-0.0786 z m 43.387024,0.20619 c 0.66732,-0.0139 1.34251,0.007 2.02468,0.0631 6.44664,0.52787 12.05329,4.39195 15.03112,10.35957 0.61804,1.23857 1.41387,3.60933 1.41387,4.21215 0,0.17563 -1.04024,0.22428 -4.81573,0.22428 h -4.81521 l -0.36845,-0.7581 c -0.49435,-1.0175 -2.05277,-2.69701 -3.16156,-3.40702 -5.40945,-3.46395 -12.763824,-0.19555 -13.833794,6.14794 -0.50922,3.019 0.67792,6.45114 2.886134,8.34419 4.45389,3.81823 11.17902,2.644 14.05651,-2.45463 l 0.56069,-0.99322 h 4.76147 4.76094 l -0.12505,0.74931 c -0.0688,0.41231 -0.32359,1.30528 -0.56638,1.98438 -2.04118,5.70926 -6.54335,9.91399 -12.48037,11.65613 -2.18946,0.64246 -6.28075,0.76961 -8.58552,0.26665 -9.292267,-2.02778 -15.551942,-10.50662 -14.600666,-19.77657 0.455292,-4.4367 2.322671,-8.31434 5.487003,-11.3931 3.423989,-3.33138 7.699023,-5.12742 12.370313,-5.22501 z" /></g><text
       xml:space="preserve"
       style="font-style:normal;font-variant:normal;font-weight:bold;font-stretch:normal;font-size:7.05556px;line-height:7.03325px;font-family:'Lexend Giga';-inkscape-font-specification:'Lexend Giga Bold';text-align:start;writing-mode:lr-tb;direction:ltr;text-anchor:start;fill:#de2020;stroke:#000000;stroke-width:0.523875;stroke-miterlimit:48.7"
       x="41.670048"
       y="195.98216"
       id="text1"
       inkscape:label="SE Logo"><tspan
         sodipodi:role="line"
         id="tspan1"
         style="font-style:normal;font-variant:normal;font-weight:normal;font-stretch:normal;font-size:7.05556px;line-height:7.03325px;font-family:'Lexend Giga';-inkscape-font-specification:'Lexend Giga';fill:#de2020;fill-opacity:1;stroke:none;stroke-width:0.523875"
         x="41.670048"
         y="195.98216">Software Engineer</tspan></text></g><g
     inkscape:groupmode="layer"
     id="layer2"
     inkscape:label="Logo Combined"
     transform="translate(-27.80864,-165.28807)"><g
       id="g3"
       inkscape:label="Rectangle"
       transform="translate(-34.705371,-0.34112286)"
       style="display:inline"><path
         id="path2"
         style="display:inline;fill:#cc005f;fill-opacity:1"
         inkscape:label="Joined Logo"
         d="m 74.406823,165.62917 -5.942273,0.0465 -5.942273,0.0465 4.934583,9.38496 c 2.714069,5.16191 4.934582,9.45586 4.934582,9.54206 0,0.0862 -2.222328,4.38122 -4.938717,9.54412 -2.716388,5.16289 -4.938716,9.43961 -4.938716,9.50381 0,0.0642 0.573419,0.69427 1.274341,1.39991 l 1.27434,1.28261 h 5.954159 5.954159 l 0.639237,-1.19062 c 0.351464,-0.65484 1.136021,-2.1331 1.743563,-3.28507 l 1.104325,-2.09445 1.07332,2.0066 c 0.846728,1.5832 1.345988,2.2761 2.367297,3.28713 l 1.293978,1.28158 5.91075,-0.0465 5.910234,-0.0465 -4.99091,-9.48986 -4.990393,-9.48934 5.022949,-9.56014 5.023466,-9.55963 -1.270723,-1.27951 -1.270724,-1.2795 h -6.007902 -6.007902 l -1.669665,3.17035 c -0.918211,1.74374 -1.71957,3.1725 -1.78077,3.175 -0.0612,0.002 -0.557264,-0.85083 -1.102775,-1.89653 -0.781931,-1.49889 -1.264047,-2.17153 -2.276864,-3.17758 z m 38.348567,0.11007 c -0.2771,-4.6e-4 -0.55572,0.005 -0.83664,0.015 -3.05626,0.1135 -5.18511,0.64796 -7.84965,1.97198 -6.491758,3.22578 -10.495841,9.66656 -10.494972,16.88114 4.94e-4,4.09472 1.008603,7.43881 3.26285,10.82673 1.093302,1.64313 5.542662,6.19735 7.244002,7.41453 2.33105,1.66767 5.25415,2.86166 8.1902,3.34553 0.93374,0.15393 2.29809,0.22075 3.61632,0.17725 8.67739,-0.2864 16.0451,-6.39946 17.89813,-14.85025 l 0.31471,-1.43661 -1.34927,-1.34152 -1.34927,-1.34152 -5.3759,0.001 -5.3759,5.1e-4 -0.60927,1.18959 c -2.01807,3.94119 -6.79099,5.64141 -10.82673,3.85662 -1.52591,-0.67484 -2.22383,-2.04097 -2.36729,-4.63176 -0.0733,-1.32294 -0.0214,-1.83612 0.28939,-2.85926 1.01788,-3.35114 3.97967,-5.73107 7.4352,-5.97483 1.54293,-0.10884 2.8043,0.12196 4.15117,0.75913 0.75001,0.35482 1.05873,0.63172 1.42523,1.27796 0.25732,0.45375 1.06929,1.44025 1.80403,2.19211 l 1.33583,1.36684 h 5.33973 5.33973 v -0.42116 c 0,-1.42131 -1.61211,-5.4622 -3.01326,-7.55251 -0.96998,-1.44705 -5.34571,-5.90329 -7.05538,-7.18509 -3.25975,-2.44395 -6.98642,-3.67464 -11.14299,-3.68143 z m -43.996284,0.42374 h 5.18728 l 2.252576,4.32015 c 1.239033,2.3757 2.266691,4.30088 2.283581,4.27778 0.01689,-0.0231 1.042448,-1.96705 2.278931,-4.31964 l 2.247925,-4.27725 h 5.09788 c 3.736836,0 5.098396,0.0543 5.098396,0.2036 0,0.11204 -1.975197,3.94171 -4.388879,8.5106 -2.413682,4.56888 -4.559378,8.6464 -4.768184,9.06094 l -0.379305,0.75344 4.257104,8.06618 c 2.341617,4.43615 4.531211,8.56158 4.865336,9.16791 l 0.607198,1.10226 -5.25601,-0.005 -5.25601,-0.005 -2.225187,-4.23953 -2.225187,-4.23902 -2.20555,4.19975 -2.206067,4.19974 -5.225521,0.047 -5.225521,0.0465 0.869198,-1.63401 c 0.477927,-0.89882 2.650828,-5.02717 4.828646,-9.1736 l 3.959448,-7.53855 -4.829679,-9.18394 c -2.65625,-5.05107 -4.829163,-9.2189 -4.829163,-9.26197 0,-0.0431 2.333903,-0.0786 5.186764,-0.0786 z m 43.387024,0.20619 c 0.66732,-0.0139 1.34251,0.007 2.02468,0.0631 6.44664,0.52787 12.05329,4.39195 15.03112,10.35957 0.61804,1.23857 1.41387,3.60933 1.41387,4.21215 0,0.17563 -1.04024,0.22428 -4.81573,0.22428 h -4.81521 l -0.36845,-0.7581 c -0.49435,-1.0175 -2.05277,-2.69701 -3.16156,-3.40702 -5.40945,-3.46395 -12.76382,-0.19555 -13.83379,6.14794 -0.50922,3.019 0.67792,6.45114 2.88613,8.34419 4.45389,3.81823 11.17902,2.644 14.05651,-2.45463 l 0.56069,-0.99322 h 4.76147 4.76094 l -0.12505,0.74931 c -0.0688,0.41231 -0.32359,1.30528 -0.56638,1.98438 -2.04118,5.70926 -6.54335,9.91399 -12.48037,11.65613 -2.18946,0.64246 -6.28075,0.76961 -8.58552,0.26665 -9.292267,-2.02778 -15.551942,-10.50662 -14.600666,-19.77657 0.455292,-4.4367 2.322671,-8.31434 5.487003,-11.3931 3.423993,-3.33138 7.699023,-5.12742 12.370313,-5.22501 z" /><text
         xml:space="preserve"
         style="font-style:normal;font-variant:normal;font-weight:bold;font-stretch:normal;font-size:7.05556px;line-height:7.03325px;font-family:'Lexend Giga';-inkscape-font-specification:'Lexend Giga Bold';text-align:start;writing-mode:lr-tb;direction:ltr;text-anchor:start;fill:#cc005f;fill-opacity:1;stroke:#000000;stroke-width:0.523875;stroke-miterlimit:48.7"
         x="136.92004"
         y="189.63217"
         id="text2"
         inkscape:label="SE Logo"><tspan
           sodipodi:role="line"
           id="tspan2"
           style="font-style:normal;font-variant:normal;font-weight:normal;font-stretch:normal;font-size:7.05556px;line-height:7.03325px;font-family:'Lexend Giga';-inkscape-font-specification:'Lexend Giga';fill:#cc005f;fill-opacity:1;stroke:none;stroke-width:0.523875"
           x="136.92004"
           y="189.63217">Software Engineer</tspan></text></g></g></svg>
